<?xml version="1.0" encoding="UTF-8"?>
<svg id="_레이어_2" data-name="레이어 2" xmlns="http://www.w3.org/2000/svg" viewBox="0 0 62 48">
  <defs>
    <style>
      .cls-1 {
        fill: #000064;
        opacity: .1;
      }

      .cls-2 {
        fill: #cdf0f0;
      }

      .cls-3 {
        fill: none;
        stroke: #2e4369;
        stroke-linecap: round;
        stroke-linejoin: round;
        stroke-width: 2px;
      }

      .cls-4 {
        fill: #fff;
        opacity: .5;
      }
    </style>
  </defs>
  <g id="Layer_1" data-name="Layer 1">
    <g>
      <g>
        <g>
          <path class="cls-2" d="m55,34.99c0-6.63-5.37-12-12-12-.39,0-.78.02-1.16.06-2.36-5.89-8.11-10.06-14.84-10.06-8.16,0-14.88,6.12-15.87,14.01-.05,0-.09-.02-.13-.02-5.52,0-10,4.48-10,10s4.48,10,10,10h32.07c6.59-.04,11.93-5.4,11.93-12Z"/>
          <path class="cls-1" d="m11,30c0-.97.1-1.91.25-2.83l-.25-.17h0c-5.52,0-10,4.48-10,10s4.48,10,10,10h16.97c-9.37-.02-16.97-7.62-16.97-17Z"/>
          <path class="cls-4" d="m55,35c0-6.63-5.37-12-12-12-.37,0-.73.02-1.09.05-.02,0-.04,0-.07,0-2.04-5.08-6.6-8.87-12.13-9.82-.17-.03-.35-.06-.53-.08-.23-.03-.47-.06-.71-.08-.49-.04-.99-.08-1.49-.08-.53,0-1.05.03-1.56.08-3.77.37-7.14,2.05-9.68,4.57,1.68-.41,3.43-.65,5.24-.65,6.53,0,12.39,2.86,16.41,7.39-.38.2-.75.41-1.1.65.23-.01.45-.03.69-.03,8.28,0,15,6.72,15,15,0,1.15-.14,2.27-.39,3.35,2.09-2.16,3.39-5.1,3.39-8.35Zm-14.23-11.78s-.04,0-.06.01c.02,0,.04,0,.06-.01Z"/>
        </g>
        <path class="cls-2" d="m61,19c0-5.52-4.47-9.99-9.99-10-1.96-4.7-6.59-8-12-8-6.88,0-12.49,5.24-12.96,12v.04c.32-.02.63-.04.94-.04,6.73,0,12.48,4.17,14.85,10.06.38-.04.77-.06,1.15-.06,4.34,0,8.12,2.31,10.23,5.75h.01c4.44-1.02,7.76-5,7.76-9.76Z"/>
        <path class="cls-1" d="m61,19c0-5.52-4.47-9.99-9.99-10-1.96-4.7-6.59-8-12-8-6.88,0-12.49,5.24-12.96,12v.04c.32-.02.63-.04.94-.04,6.73,0,12.48,4.17,14.85,10.06.38-.04.77-.06,1.15-.06,4.34,0,8.12,2.31,10.23,5.75h.01c4.44-1.02,7.76-5,7.76-9.76Z"/>
      </g>
      <g>
        <path class="cls-3" d="m53.24,28.75c4.44-1.02,7.76-5,7.76-9.75,0-5.52-4.47-9.99-9.99-10-1.96-4.7-6.59-8-12-8-6.88,0-12.49,5.24-12.95,12"/>
        <path class="cls-3" d="m55,35c0-6.63-5.37-12-12-12-.39,0-.77.02-1.15.06-2.36-5.89-8.11-10.06-14.85-10.06-8.16,0-14.88,6.12-15.87,14.01-.04,0-.09-.01-.13-.01-5.52,0-10,4.48-10,10s4.48,10,10,10h32.07c6.59-.04,11.93-5.4,11.93-12Z"/>
      </g>
    </g>
  </g>
</svg>