<?xml version="1.0" encoding="UTF-8"?>
<svg id="_레이어_2" data-name="레이어 2" xmlns="http://www.w3.org/2000/svg" viewBox="0 0 62 62">
  <defs>
    <style>
      .cls-1 {
        fill: #000064;
        opacity: .1;
      }

      .cls-2 {
        fill: #cdf0f0;
      }

      .cls-3 {
        fill: none;
        stroke: #2e4369;
        stroke-linecap: round;
        stroke-linejoin: round;
        stroke-width: 2px;
      }

      .cls-4 {
        fill: #fff;
        opacity: .5;
      }
    </style>
  </defs>
  <g id="Layer_1" data-name="Layer 1">
    <g>
      <g>
        <path class="cls-2" d="m48,11c-.17,0-.33.02-.5.03-2.66-5.91-8.59-10.04-15.5-10.04-8.53,0-15.58,6.29-16.79,14.49-1.02-.31-2.09-.48-3.21-.48C5.92,15,1,19.92,1,26s4.93,11,11,11h36c7.18,0,13-5.82,13-13s-5.82-13-13-13Z"/>
        <path class="cls-1" d="m15,19c0-1.19.12-2.36.34-3.48l-.16-.05c-1.01-.3-2.07-.47-3.18-.47C5.92,15,1,19.92,1,26s4.93,11,11,11h21c-9.94,0-18-8.06-18-18Z"/>
        <path class="cls-4" d="m61,24c0-7.18-5.82-13-13-13-.17,0-.33.02-.5.03-2.24-4.99-6.82-8.69-12.33-9.73-.39-.07-.78-.14-1.18-.18-.08,0-.17-.02-.25-.03-.57-.06-1.15-.09-1.74-.09-1.08,0-2.14.1-3.17.29-3.15.6-5.98,2.07-8.26,4.15,1.43-.28,2.91-.44,4.43-.44,6.73,0,12.77,2.9,16.97,7.5-1.61.85-3.04,2.02-4.16,3.44,1.62-.6,3.36-.94,5.19-.94,8.28,0,15,6.72,15,15,0,.88-.09,1.73-.23,2.56,2.01-2.29,3.23-5.28,3.23-8.56Z"/>
      </g>
      <g>
        <path class="cls-3" d="m48,11.01c-.17,0-.33.02-.5.03-2.66-5.91-8.59-10.04-15.5-10.04-8.54,0-15.58,6.29-16.79,14.49-1.02-.31-2.09-.48-3.21-.48-6.07,0-11,4.93-11,11s4.93,11,11,11h36c7.18,0,13-5.82,13-13s-5.82-13-13-13Z"/>
        <line class="cls-3" x1="11" y1="45" x2="4.59" y2="53"/>
        <line class="cls-3" x1="23" y1="45" x2="10.19" y2="61"/>
        <line class="cls-3" x1="35" y1="45" x2="28.59" y2="53"/>
        <line class="cls-3" x1="47" y1="45" x2="34.19" y2="61"/>
      </g>
    </g>
  </g>
</svg>