<?xml version="1.0" encoding="UTF-8"?>
<svg id="_레이어_2" data-name="레이어 2" xmlns="http://www.w3.org/2000/svg" viewBox="0 0 62 54.01">
  <defs>
    <style>
      .cls-1 {
        fill: #000064;
        opacity: .1;
      }

      .cls-2 {
        fill: #cdf0f0;
      }

      .cls-3 {
        fill: #cdebf2;
      }

      .cls-4 {
        fill: none;
        stroke: #2e4369;
        stroke-linecap: round;
        stroke-linejoin: round;
        stroke-width: 2px;
      }

      .cls-5 {
        fill: #fff;
        opacity: .5;
      }
    </style>
  </defs>
  <g id="Layer_1" data-name="Layer 1">
    <g>
      <g>
        <path class="cls-2" d="m48,11c-.17,0-.33.02-.5.03-2.66-5.91-8.59-10.04-15.5-10.04-8.53,0-15.58,6.29-16.79,14.49-1.02-.31-2.09-.48-3.21-.48-6.08,0-11,4.93-11,11s4.93,11,11,11h36c7.18,0,13-5.82,13-13s-5.82-13-13-13Z"/>
        <path class="cls-1" d="m15,19c0-1.19.12-2.36.34-3.48l-.16-.05c-1.01-.3-2.07-.47-3.18-.47-6.08,0-11,4.93-11,11s4.93,11,11,11h21c-9.94,0-18-8.06-18-18Z"/>
        <path class="cls-5" d="m61,24c0-7.18-5.82-13-13-13-.17,0-.33.02-.5.03-2.24-4.99-6.82-8.69-12.33-9.73-.39-.07-.78-.14-1.18-.18-.08,0-.17-.02-.25-.03-.57-.06-1.15-.09-1.74-.09-1.08,0-2.14.1-3.17.29-3.15.6-5.98,2.07-8.26,4.15,1.43-.28,2.91-.44,4.43-.44,6.73,0,12.77,2.9,16.97,7.5-1.61.85-3.04,2.02-4.16,3.44,1.62-.6,3.36-.94,5.19-.94,8.28,0,15,6.72,15,15,0,.88-.09,1.73-.23,2.56,2.01-2.29,3.23-5.28,3.23-8.56Z"/>
        <path class="cls-3" d="m36.98,46.43c-.04-.51-.13-1-.29-1.47-1.23-4.32-5.69-9.95-5.69-9.95,0,0-4.46,5.63-5.69,9.95-.15.47-.25.96-.29,1.47-.01.16-.02.31-.02.46,0,3.38,2.69,6.12,6,6.12s6-2.74,6-6.12c0-.15,0-.31-.02-.46Z"/>
        <path class="cls-1" d="m33,49.01c-3.31,0-6-2.74-6-6.12,0-.15,0-.31.02-.46.04-.51.13-1,.29-1.47.1-.36.23-.73.38-1.11-.98,1.64-1.91,3.47-2.38,5.11-.15.47-.25.96-.29,1.47-.01.16-.02.31-.02.46,0,3.38,2.69,6.12,6,6.12,3.12,0,5.69-2.43,5.97-5.54-1.06.96-2.45,1.54-3.97,1.54Z"/>
      </g>
      <g>
        <path class="cls-4" d="m41,37.01h7c7.18,0,13-5.82,13-13s-5.82-13-13-13c-.17,0-.33.02-.5.02-2.66-5.91-8.59-10.04-15.5-10.04-8.53,0-15.58,6.29-16.79,14.49-1.02-.31-2.09-.48-3.21-.48-6.08,0-11,4.93-11,11s4.93,11,11,11h9"/>
        <path class="cls-4" d="m36.98,46.43c-.04-.51-.13-1-.29-1.47-1.23-4.32-5.69-9.95-5.69-9.95,0,0-4.46,5.63-5.69,9.95-.15.47-.25.96-.29,1.47-.01.16-.02.31-.02.46,0,3.38,2.69,6.12,6,6.12s6-2.74,6-6.12c0-.15,0-.31-.02-.46Z"/>
      </g>
    </g>
  </g>
</svg>