<?xml version="1.0" encoding="UTF-8"?>
<svg id="_레이어_2" data-name="레이어 2" xmlns="http://www.w3.org/2000/svg" viewBox="0 0 62 54">
  <defs>
    <style>
      .cls-1 {
        fill: #000064;
        opacity: .1;
      }

      .cls-2 {
        fill: #cdf0f0;
      }

      .cls-3 {
        fill: none;
        stroke: #2e4369;
        stroke-linecap: round;
        stroke-linejoin: round;
        stroke-width: 2px;
      }

      .cls-4 {
        fill: #fff;
        opacity: .5;
      }
    </style>
  </defs>
  <g id="Layer_1" data-name="Layer 1">
    <g>
      <g>
        <path class="cls-2" d="m54.3,37c.44-1.25.7-2.6.7-4,0-6.63-5.37-12-12-12-.39,0-.78.02-1.16.06-2.36-5.89-8.11-10.06-14.84-10.06-8.16,0-14.88,6.12-15.87,14.01-.05,0-.09-.02-.13-.02-5.52,0-10,4.48-10,10,0,.69.07,1.35.2,2h53.1Z"/>
        <path class="cls-2" d="m61,19c0-5.52-4.47-9.99-9.99-10-1.96-4.7-6.59-8-12-8-6.19,0-11.35,4.25-12.65,10.03.21,0,.43-.03.64-.03,6.73,0,12.48,4.17,14.84,10.06.38-.04.77-.06,1.16-.06,5.03,0,9.34,3.11,11.12,7.5,3.99-1.31,6.88-5.07,6.88-9.5Z"/>
        <path class="cls-1" d="m61,19c0-5.52-4.47-9.99-9.99-10-1.96-4.7-6.59-8-12-8-6.19,0-11.35,4.25-12.65,10.03.21,0,.43-.03.64-.03,6.73,0,12.48,4.17,14.84,10.06.38-.04.77-.06,1.16-.06,5.03,0,9.34,3.11,11.12,7.5,3.99-1.31,6.88-5.07,6.88-9.5Z"/>
        <path class="cls-1" d="m13.59,37c-1.64-2.61-2.6-5.69-2.6-9,0-.97.1-1.91.25-2.83l-.25-.17h0c-5.52,0-10,4.48-10,10,0,.68.07,1.35.2,2h12.4Z"/>
        <path class="cls-4" d="m37.41,22.39c-.38.2-.75.41-1.1.65.23-.01.45-.03.69-.03,7.95,0,14.43,6.18,14.95,14h2.35c.45-1.25.7-2.59.7-4,0-6.63-5.37-12-12-12-.37,0-.73.02-1.09.05-.02,0-.04,0-.07,0-2.04-5.08-6.6-8.87-12.13-9.82-.17-.03-.35-.06-.53-.08-.23-.03-.47-.06-.71-.08-.49-.04-.99-.08-1.49-.08-.53,0-1.05.03-1.56.08-3.77.37-7.14,2.05-9.68,4.57,1.68-.41,3.43-.65,5.24-.65,6.53,0,12.39,2.86,16.41,7.39Z"/>
      </g>
      <g>
        <path class="cls-3" d="m54.83,31c-.95-5.68-5.89-10-11.83-10-.39,0-.77.02-1.15.06-2.36-5.89-8.11-10.06-14.85-10.06-8.16,0-14.88,6.12-15.87,14.01-.04,0-.09-.01-.13-.01-4.1,0-7.63,2.47-9.17,6"/>
        <line class="cls-3" x1="1" y1="37" x2="57" y2="37"/>
        <line class="cls-3" x1="5" y1="45" x2="53" y2="45"/>
        <line class="cls-3" x1="11" y1="53" x2="48.99" y2="53"/>
        <path class="cls-3" d="m54.13,28.5c3.99-1.31,6.87-5.07,6.87-9.5,0-5.52-4.47-9.99-9.99-10-1.96-4.7-6.59-8-12-8-6.19,0-11.35,4.24-12.66,10.01"/>
      </g>
    </g>
  </g>
</svg>