<?xml version="1.0" encoding="UTF-8"?>
<svg id="_레이어_2" data-name="레이어 2" xmlns="http://www.w3.org/2000/svg" viewBox="0 0 58 62">
  <defs>
    <style>
      .cls-1 {
        fill: #000064;
        opacity: .1;
      }

      .cls-2 {
        fill: #fff;
      }

      .cls-3 {
        fill: #cdebf2;
      }

      .cls-4 {
        fill: none;
        stroke: #2e4369;
        stroke-linecap: round;
        stroke-linejoin: round;
        stroke-width: 2px;
      }
    </style>
  </defs>
  <g id="Layer_1" data-name="Layer 1">
    <g>
      <g>
        <path class="cls-3" d="m20.96,50.03c-.06-.85-.22-1.67-.48-2.45-2.04-7.2-9.48-16.57-9.48-16.57,0,0-7.44,9.38-9.48,16.57-.25.78-.42,1.6-.48,2.45-.02.26-.04.52-.04.77,0,5.63,4.48,10.2,10,10.2s10-4.57,10-10.2c0-.25-.01-.51-.04-.77Z"/>
        <path class="cls-1" d="m14,56c-5.52,0-10-4.57-10-10.2,0-.25.02-.51.04-.77.06-.85.22-1.67.48-2.45.57-2,1.55-4.16,2.68-6.24-2.16,3.28-4.63,7.54-5.68,11.24-.25.78-.42,1.6-.48,2.45-.02.26-.04.52-.04.77,0,5.63,4.48,10.2,10,10.2,4.64,0,8.54-3.23,9.66-7.61-1.77,1.62-4.1,2.61-6.66,2.61Z"/>
        <path class="cls-3" d="m56.96,50.03c-.06-.85-.22-1.67-.48-2.45-2.04-7.2-9.48-16.57-9.48-16.57,0,0-7.44,9.38-9.48,16.57-.25.78-.42,1.6-.48,2.45-.02.26-.04.52-.04.77,0,5.63,4.48,10.2,10,10.2s10-4.57,10-10.2c0-.25-.01-.51-.04-.77Z"/>
        <path class="cls-3" d="m38.96,20.03c-.06-.85-.22-1.67-.48-2.45C36.44,10.38,29,1,29,1c0,0-7.44,9.38-9.48,16.57-.26.78-.42,1.6-.48,2.45-.02.26-.04.52-.04.77,0,5.63,4.48,10.2,10,10.2s10-4.57,10-10.2c0-.25-.01-.51-.04-.77Z"/>
        <path class="cls-1" d="m50,56c-5.52,0-10-4.57-10-10.2,0-.25.02-.51.04-.77.06-.85.22-1.67.48-2.45.57-2,1.55-4.16,2.68-6.24-2.16,3.28-4.63,7.54-5.68,11.24-.25.78-.42,1.6-.48,2.45-.02.26-.04.52-.04.77,0,5.63,4.48,10.2,10,10.2,4.64,0,8.54-3.23,9.66-7.61-1.77,1.62-4.1,2.61-6.66,2.61Z"/>
        <path class="cls-1" d="m32,26c-5.52,0-10-4.57-10-10.2,0-.25.02-.51.04-.77.06-.85.22-1.67.48-2.45.57-2,1.55-4.16,2.68-6.24-2.16,3.28-4.63,7.54-5.68,11.24-.25.78-.42,1.6-.48,2.45-.02.26-.04.52-.04.77,0,5.63,4.48,10.2,10,10.2,4.64,0,8.54-3.23,9.66-7.61-1.77,1.62-4.1,2.61-6.66,2.61Z"/>
        <path class="cls-2" d="m53.83,48c.74,2.08.06,4.22-1.5,4.77-1.56.55-3.42-.69-4.16-2.77-.73-2.08-.06-4.22,1.5-4.77,1.56-.55,3.42.69,4.16,2.77Z"/>
        <path class="cls-2" d="m17.83,48c.74,2.08.06,4.22-1.5,4.77-1.56.55-3.42-.69-4.16-2.77-.73-2.08-.06-4.22,1.5-4.77,1.56-.55,3.42.69,4.16,2.77Z"/>
        <path class="cls-2" d="m35.83,18c.74,2.08.06,4.22-1.5,4.77-1.56.55-3.42-.69-4.16-2.77-.73-2.08-.06-4.22,1.5-4.77,1.56-.55,3.42.69,4.16,2.77Z"/>
      </g>
      <g>
        <path class="cls-4" d="m20.96,50.03c-.06-.85-.22-1.67-.48-2.45-2.04-7.2-9.48-16.57-9.48-16.57,0,0-7.44,9.38-9.48,16.57-.25.78-.42,1.6-.48,2.45-.02.26-.04.52-.04.77,0,5.63,4.48,10.2,10,10.2s10-4.57,10-10.2c0-.25-.01-.51-.04-.77Z"/>
        <path class="cls-4" d="m56.96,50.03c-.06-.85-.22-1.67-.48-2.45-2.04-7.2-9.48-16.57-9.48-16.57,0,0-7.44,9.38-9.48,16.57-.25.78-.42,1.6-.48,2.45-.02.26-.04.52-.04.77,0,5.63,4.48,10.2,10,10.2s10-4.57,10-10.2c0-.25-.01-.51-.04-.77Z"/>
        <path class="cls-4" d="m38.96,20.03c-.06-.85-.22-1.67-.48-2.45C36.44,10.38,29,1,29,1c0,0-7.44,9.38-9.48,16.57-.26.78-.42,1.6-.48,2.45-.02.26-.04.52-.04.77,0,5.63,4.48,10.2,10,10.2s10-4.57,10-10.2c0-.25-.01-.51-.04-.77Z"/>
      </g>
    </g>
  </g>
</svg>