<?xml version="1.0" encoding="UTF-8"?>
<svg id="_레이어_2" data-name="레이어 2" xmlns="http://www.w3.org/2000/svg" viewBox="0 0 62 62">
  <defs>
    <style>
      .cls-1 {
        fill: #fc0;
      }

      .cls-2 {
        fill: none;
        stroke: #2e4369;
        stroke-linecap: round;
        stroke-linejoin: round;
        stroke-width: 2px;
      }

      .cls-3 {
        fill: #fff;
        opacity: .5;
      }
    </style>
  </defs>
  <g id="Layer_1" data-name="Layer 1">
    <g>
      <g>
        <circle class="cls-1" cx="31.01" cy="31.01" r="14"/>
        <path class="cls-3" d="m31.01,17.01c-4.63,0-8.73,2.26-11.27,5.73,2.32-1.71,5.17-2.73,8.27-2.73,7.73,0,14,6.27,14,14,0,3.1-1.02,5.95-2.73,8.27,3.47-2.55,5.73-6.64,5.73-11.27,0-7.73-6.27-14-14-14Z"/>
      </g>
      <g>
        <circle class="cls-2" cx="31.01" cy="31.01" r="14"/>
        <line class="cls-2" x1="31" y1="1" x2="31" y2="9"/>
        <line class="cls-2" x1="31" y1="53" x2="31" y2="61"/>
        <line class="cls-2" x1="61" y1="31" x2="53" y2="31"/>
        <line class="cls-2" x1="9" y1="31" x2="1" y2="31"/>
        <line class="cls-2" x1="9.79" y1="9.79" x2="15.44" y2="15.44"/>
        <line class="cls-2" x1="46.56" y1="46.56" x2="52.21" y2="52.21"/>
        <line class="cls-2" x1="52.21" y1="9.79" x2="46.56" y2="15.44"/>
        <line class="cls-2" x1="15.44" y1="46.56" x2="9.79" y2="52.21"/>
      </g>
    </g>
  </g>
</svg>