<?xml version="1.0" encoding="UTF-8"?>
<svg id="_레이어_2" data-name="레이어 2" xmlns="http://www.w3.org/2000/svg" viewBox="0 0 62 62">
  <defs>
    <style>
      .cls-1 {
        fill: #c4ffff;
      }

      .cls-2 {
        fill: #000064;
        opacity: .15;
      }

      .cls-3 {
        fill: none;
        stroke: #2e4369;
        stroke-linecap: round;
        stroke-linejoin: round;
        stroke-width: 2px;
      }

      .cls-4 {
        fill: #fff;
        opacity: .5;
      }
    </style>
  </defs>
  <g id="Layer_1" data-name="Layer 1">
    <g>
      <g>
        <polygon class="cls-1" points="31 1 23 11 9.79 9.79 13 24 1 31 14 38 9.79 52.21 24 49 31 61 38 49 52.21 52.21 50 39 61 31 50 23 52.21 9.79 39 11 31 1"/>
        <polygon class="cls-2" points="10 52 9.95 51.68 9.79 52.21 24 49 31 61 31 31 10 52"/>
        <polygon class="cls-2" points="30 31 1 31 14 38 30 31"/>
        <polygon class="cls-4" points="32 31 61 31 50 23 32 31"/>
        <polygon class="cls-4" points="52 10 52.18 10 52.21 9.79 39 11 31 1 31 31 52 10"/>
      </g>
      <g>
        <polyline class="cls-3" points="22.4 2.4 31 11 39.6 2.4"/>
        <polyline class="cls-3" points="22.4 59.6 31 51 39.6 59.6"/>
        <polyline class="cls-3" points="2.4 39.6 11 31 2.4 22.4"/>
        <polyline class="cls-3" points="59.6 39.6 51 31 59.6 22.4"/>
        <polyline class="cls-3" points="4.84 17.01 17 17.01 17 4.85"/>
        <polyline class="cls-3" points="45 57.16 45 45 57.16 45"/>
        <polyline class="cls-3" points="17 57.16 17 45 4.84 45"/>
        <polyline class="cls-3" points="57.15 17 44.99 17 44.99 4.85"/>
        <line class="cls-3" x1="1" y1="31" x2="61" y2="31"/>
        <line class="cls-3" x1="31" y1="1" x2="31" y2="61"/>
        <line class="cls-3" x1="9.79" y1="9.79" x2="52.21" y2="52.21"/>
        <line class="cls-3" x1="52.21" y1="9.79" x2="9.79" y2="52.21"/>
      </g>
    </g>
  </g>
</svg>